<svg id="svg" version="1.1" xmlns="http://www.w3.org/2000/svg" xmlns:xlink="http://www.w3.org/1999/xlink" width="400" height="400" viewBox="0, 0, 400,400"><g id="svgg"><path id="path0" d="M89.060 85.661 C 88.644 91.519,88.760 137.125,89.197 139.800 C 91.543 154.144,100.665 162.492,116.055 164.376 C 135.524 166.759,151.769 159.369,156.448 146.000 C 158.806 139.261,158.876 138.267,159.081 108.500 L 159.264 82.000 148.832 82.000 C 143.094 82.000,138.366 82.045,138.325 82.100 C 138.284 82.155,138.138 94.530,138.001 109.600 C 137.804 131.225,137.637 137.295,137.210 138.400 C 134.685 144.920,132.688 146.916,127.342 148.259 C 121.209 149.799,114.644 147.413,112.143 142.734 C 110.154 139.015,110.243 140.416,110.102 110.300 L 109.970 82.000 99.645 82.000 L 89.320 82.000 89.060 85.661 M234.627 245.900 C 234.021 248.485,233.366 251.140,233.171 251.800 C 232.977 252.460,232.540 254.260,232.202 255.800 C 231.863 257.340,231.416 259.230,231.208 260.000 C 231.000 260.770,230.550 262.660,230.208 264.200 C 229.866 265.740,229.415 267.630,229.207 268.400 C 228.998 269.170,228.378 271.690,227.829 274.000 C 225.109 285.447,223.548 291.932,223.206 293.200 C 222.999 293.970,222.550 295.860,222.208 297.400 C 221.866 298.940,221.416 300.830,221.208 301.600 C 221.000 302.370,220.550 304.260,220.208 305.800 C 219.866 307.340,219.418 309.230,219.214 310.000 C 219.009 310.770,218.550 312.660,218.192 314.200 C 217.835 315.740,217.384 317.630,217.191 318.400 C 216.998 319.170,216.737 320.295,216.612 320.900 L 216.385 322.000 226.369 322.000 C 232.611 322.000,236.446 321.850,236.601 321.599 C 236.737 321.378,237.001 320.343,237.187 319.299 C 237.373 318.255,237.830 315.870,238.202 314.000 C 238.573 312.130,239.018 309.880,239.189 309.000 C 239.504 307.379,240.875 300.785,242.641 292.400 C 243.174 289.870,243.868 286.450,244.183 284.800 C 244.499 283.150,244.924 280.990,245.129 280.000 C 245.334 279.010,246.071 275.410,246.767 272.000 C 248.436 263.832,248.838 262.800,249.380 265.300 C 249.984 268.091,250.876 271.982,251.192 273.200 C 251.391 273.970,251.851 275.950,252.214 277.600 C 252.577 279.250,253.035 281.230,253.230 282.000 C 253.426 282.770,253.859 284.615,254.193 286.100 C 256.267 295.323,256.754 297.432,257.218 299.200 C 257.420 299.970,257.859 301.815,258.193 303.300 C 260.173 312.107,260.734 314.543,261.208 316.400 C 261.404 317.170,261.771 318.745,262.022 319.900 L 262.480 322.000 274.416 322.000 C 287.345 322.000,286.706 322.118,287.240 319.631 C 287.736 317.323,288.366 314.704,288.787 313.200 C 289.003 312.430,290.538 306.220,292.198 299.400 C 293.859 292.580,295.390 286.370,295.601 285.600 C 295.812 284.830,297.056 279.818,298.364 274.462 C 301.492 261.655,301.367 261.736,302.790 271.600 C 302.997 273.030,303.452 276.000,303.801 278.200 C 304.151 280.400,304.594 283.280,304.786 284.600 C 305.139 287.025,305.442 289.006,307.809 304.400 C 308.165 306.710,308.615 309.680,308.810 311.000 C 309.005 312.320,309.437 315.200,309.770 317.400 C 310.102 319.600,310.380 321.535,310.387 321.700 C 310.394 321.865,315.100 322.000,320.844 322.000 L 331.288 322.000 331.090 320.700 C 330.981 319.985,330.601 317.960,330.246 316.200 C 329.891 314.440,329.492 312.460,329.361 311.800 C 329.229 311.140,328.756 308.800,328.309 306.600 C 327.863 304.400,327.413 302.150,327.310 301.600 C 327.112 300.546,324.308 286.157,323.568 282.400 C 323.330 281.190,322.973 279.480,322.776 278.600 C 322.578 277.720,322.214 275.920,321.966 274.600 C 321.719 273.280,321.372 271.480,321.197 270.600 C 321.021 269.720,320.590 267.560,320.239 265.800 C 319.888 264.040,319.492 262.060,319.361 261.400 C 319.229 260.740,318.755 258.400,318.307 256.200 C 317.457 252.021,317.314 251.276,316.243 245.414 C 315.396 240.773,316.782 241.174,301.991 241.294 L 289.033 241.400 288.759 242.600 C 288.340 244.442,287.197 249.235,286.804 250.800 C 286.611 251.570,286.262 253.010,286.029 254.000 C 285.796 254.990,285.428 256.430,285.212 257.200 C 284.996 257.970,283.910 262.380,282.797 267.000 C 280.565 276.272,279.770 279.502,279.203 281.600 C 278.644 283.667,277.177 289.561,276.763 291.400 C 276.564 292.280,276.119 294.170,275.773 295.600 C 275.427 297.030,275.046 298.695,274.926 299.300 C 274.710 300.396,274.242 300.716,273.831 300.050 C 273.712 299.857,271.018 286.728,267.845 270.873 C 264.672 255.018,261.958 241.855,261.814 241.623 C 261.639 241.340,257.279 241.200,248.641 241.200 L 235.730 241.200 234.627 245.900 " stroke="none" fill="#f9fafa" fill-rule="evenodd"></path><path id="path1" d="M51.200 118.747 L 51.200 237.600 52.400 237.600 C 53.060 237.600,53.600 237.428,53.600 237.218 C 53.600 237.008,54.230 236.718,55.000 236.574 C 55.770 236.429,56.400 236.151,56.400 235.955 C 56.400 235.760,56.749 235.600,57.176 235.600 C 57.603 235.600,58.055 235.434,58.181 235.231 C 58.306 235.028,58.947 234.743,59.605 234.599 C 60.262 234.455,60.800 234.171,60.800 233.968 C 60.800 233.766,61.160 233.600,61.600 233.600 C 62.040 233.600,62.400 233.440,62.400 233.243 C 62.400 233.047,62.895 232.767,63.500 232.621 C 65.017 232.255,66.800 231.458,66.800 231.147 C 66.800 231.005,67.430 230.771,68.200 230.626 C 68.970 230.482,69.600 230.192,69.600 229.982 C 69.600 229.772,69.870 229.600,70.200 229.600 C 70.530 229.600,70.800 229.420,70.800 229.200 C 70.800 228.980,71.159 228.800,71.597 228.800 C 72.561 228.800,75.600 227.527,75.600 227.124 C 75.600 226.966,76.230 226.718,77.000 226.574 C 77.770 226.429,78.400 226.151,78.400 225.955 C 78.400 225.760,78.749 225.600,79.176 225.600 C 79.603 225.600,80.055 225.434,80.181 225.231 C 80.306 225.028,80.947 224.743,81.605 224.599 C 82.262 224.455,82.800 224.171,82.800 223.968 C 82.800 223.766,83.160 223.600,83.600 223.600 C 84.040 223.600,84.400 223.440,84.400 223.243 C 84.400 223.047,84.895 222.767,85.500 222.621 C 87.017 222.255,88.800 221.458,88.800 221.147 C 88.800 221.005,89.430 220.771,90.200 220.626 C 90.970 220.482,91.600 220.192,91.600 219.982 C 91.600 219.772,91.870 219.600,92.200 219.600 C 92.530 219.600,92.800 219.420,92.800 219.200 C 92.800 218.980,93.159 218.800,93.597 218.800 C 94.561 218.800,97.600 217.527,97.600 217.124 C 97.600 216.966,98.230 216.718,99.000 216.574 C 99.770 216.429,100.400 216.151,100.400 215.955 C 100.400 215.760,100.749 215.600,101.176 215.600 C 101.603 215.600,102.055 215.434,102.181 215.231 C 102.306 215.028,102.947 214.743,103.605 214.599 C 104.262 214.455,104.800 214.171,104.800 213.968 C 104.800 213.766,105.160 213.600,105.600 213.600 C 106.040 213.600,106.400 213.440,106.400 213.243 C 106.400 213.047,106.895 212.767,107.500 212.621 C 109.017 212.255,110.800 211.458,110.800 211.147 C 110.800 211.005,111.430 210.771,112.200 210.626 C 112.970 210.482,113.600 210.192,113.600 209.982 C 113.600 209.772,113.870 209.600,114.200 209.600 C 114.530 209.600,114.800 209.420,114.800 209.200 C 114.800 208.980,115.159 208.800,115.597 208.800 C 116.561 208.800,119.600 207.527,119.600 207.124 C 119.600 206.966,120.230 206.718,121.000 206.574 C 121.770 206.429,122.400 206.151,122.400 205.955 C 122.400 205.760,122.749 205.600,123.176 205.600 C 123.603 205.600,124.055 205.434,124.181 205.231 C 124.306 205.028,124.947 204.743,125.605 204.599 C 126.262 204.455,126.800 204.171,126.800 203.968 C 126.800 203.766,127.160 203.600,127.600 203.600 C 128.040 203.600,128.400 203.440,128.400 203.243 C 128.400 203.047,128.895 202.767,129.500 202.621 C 131.017 202.255,132.800 201.458,132.800 201.147 C 132.800 201.005,133.430 200.771,134.200 200.626 C 134.970 200.482,135.600 200.192,135.600 199.982 C 135.600 199.772,135.870 199.600,136.200 199.600 C 136.530 199.600,136.800 199.420,136.800 199.200 C 136.800 198.980,137.159 198.800,137.597 198.800 C 138.561 198.800,141.600 197.527,141.600 197.124 C 141.600 196.966,142.230 196.718,143.000 196.574 C 143.770 196.429,144.400 196.151,144.400 195.955 C 144.400 195.760,144.749 195.600,145.176 195.600 C 145.603 195.600,146.055 195.434,146.181 195.231 C 146.306 195.028,146.947 194.743,147.605 194.599 C 148.262 194.455,148.800 194.171,148.800 193.968 C 148.800 193.766,149.160 193.600,149.600 193.600 C 150.040 193.600,150.400 193.440,150.400 193.243 C 150.400 193.047,150.895 192.767,151.500 192.621 C 153.017 192.255,154.800 191.458,154.800 191.147 C 154.800 191.005,155.430 190.771,156.200 190.626 C 156.970 190.482,157.600 190.192,157.600 189.982 C 157.600 189.772,157.870 189.600,158.200 189.600 C 158.530 189.600,158.800 189.420,158.800 189.200 C 158.800 188.980,159.159 188.800,159.597 188.800 C 160.561 188.800,163.600 187.527,163.600 187.124 C 163.600 186.966,164.230 186.718,165.000 186.574 C 165.770 186.429,166.400 186.151,166.400 185.955 C 166.400 185.760,166.749 185.600,167.176 185.600 C 167.603 185.600,168.055 185.434,168.181 185.231 C 168.306 185.028,168.947 184.743,169.605 184.599 C 170.262 184.455,170.800 184.171,170.800 183.968 C 170.800 183.766,171.160 183.600,171.600 183.600 C 172.040 183.600,172.400 183.440,172.400 183.243 C 172.400 183.047,172.895 182.767,173.500 182.621 C 175.017 182.255,176.800 181.458,176.800 181.147 C 176.800 181.005,177.430 180.771,178.200 180.626 C 178.970 180.482,179.600 180.192,179.600 179.982 C 179.600 179.772,179.870 179.600,180.200 179.600 C 180.530 179.600,180.800 179.420,180.800 179.200 C 180.800 178.980,181.159 178.800,181.597 178.800 C 182.561 178.800,185.600 177.527,185.600 177.124 C 185.600 176.966,186.230 176.718,187.000 176.574 C 187.770 176.429,188.400 176.151,188.400 175.955 C 188.400 175.760,188.749 175.600,189.176 175.600 C 189.603 175.600,190.055 175.434,190.181 175.231 C 190.306 175.028,190.947 174.743,191.605 174.599 C 192.262 174.455,192.800 174.171,192.800 173.968 C 192.800 173.766,193.160 173.600,193.600 173.600 C 194.040 173.600,194.400 173.440,194.400 173.243 C 194.400 173.047,194.895 172.767,195.500 172.621 C 197.017 172.255,198.800 171.458,198.800 171.147 C 198.800 171.005,199.430 170.771,200.200 170.626 C 200.970 170.482,201.600 170.192,201.600 169.982 C 201.600 169.772,201.870 169.600,202.200 169.600 C 202.530 169.600,202.800 169.440,202.800 169.245 C 202.800 169.050,203.610 168.769,204.600 168.621 C 205.590 168.472,206.400 168.182,206.400 167.975 C 206.400 167.769,206.670 167.600,207.000 167.600 C 207.330 167.600,207.600 167.428,207.600 167.218 C 207.600 167.008,208.230 166.718,209.000 166.574 C 209.770 166.429,210.400 166.151,210.400 165.955 C 210.400 165.760,210.749 165.600,211.176 165.600 C 211.603 165.600,212.055 165.434,212.181 165.231 C 212.306 165.028,212.947 164.743,213.605 164.599 C 214.262 164.455,214.800 164.171,214.800 163.968 C 214.800 163.766,215.160 163.600,215.600 163.600 C 216.040 163.600,216.400 163.440,216.400 163.243 C 216.400 163.047,216.895 162.767,217.500 162.621 C 219.017 162.255,220.800 161.458,220.800 161.147 C 220.800 161.005,221.430 160.771,222.200 160.626 C 222.970 160.482,223.600 160.192,223.600 159.982 C 223.600 159.772,223.870 159.600,224.200 159.600 C 224.530 159.600,224.800 159.440,224.800 159.245 C 224.800 159.050,225.610 158.769,226.600 158.621 C 227.590 158.472,228.400 158.182,228.400 157.975 C 228.400 157.769,228.670 157.600,229.000 157.600 C 229.330 157.600,229.600 157.428,229.600 157.218 C 229.600 157.008,230.230 156.718,231.000 156.574 C 231.770 156.429,232.400 156.151,232.400 155.955 C 232.400 155.760,232.749 155.600,233.176 155.600 C 233.603 155.600,234.055 155.434,234.181 155.231 C 234.306 155.028,234.947 154.743,235.605 154.599 C 236.262 154.455,236.800 154.171,236.800 153.968 C 236.800 153.766,237.160 153.600,237.600 153.600 C 238.040 153.600,238.400 153.440,238.400 153.243 C 238.400 153.047,238.895 152.767,239.500 152.621 C 241.017 152.255,242.800 151.458,242.800 151.147 C 242.800 151.005,243.430 150.771,244.200 150.626 C 244.970 150.482,245.600 150.192,245.600 149.982 C 245.600 149.772,245.870 149.600,246.200 149.600 C 246.530 149.600,246.800 149.440,246.800 149.245 C 246.800 149.050,247.610 148.769,248.600 148.621 C 249.590 148.472,250.400 148.182,250.400 147.975 C 250.400 147.769,250.670 147.600,251.000 147.600 C 251.330 147.600,251.600 147.428,251.600 147.218 C 251.600 147.008,252.230 146.718,253.000 146.574 C 253.770 146.429,254.400 146.151,254.400 145.955 C 254.400 145.760,254.749 145.600,255.176 145.600 C 255.603 145.600,256.055 145.434,256.181 145.231 C 256.306 145.028,256.947 144.743,257.605 144.599 C 258.262 144.455,258.800 144.171,258.800 143.968 C 258.800 143.766,259.160 143.600,259.600 143.600 C 260.040 143.600,260.400 143.440,260.400 143.243 C 260.400 143.047,260.895 142.767,261.500 142.621 C 263.017 142.255,264.800 141.458,264.800 141.147 C 264.800 141.005,265.430 140.771,266.200 140.626 C 266.970 140.482,267.600 140.192,267.600 139.982 C 267.600 139.772,267.870 139.600,268.200 139.600 C 268.530 139.600,268.800 139.440,268.800 139.245 C 268.800 139.050,269.610 138.769,270.600 138.621 C 271.590 138.472,272.400 138.182,272.400 137.975 C 272.400 137.769,272.670 137.600,273.000 137.600 C 273.330 137.600,273.600 137.428,273.600 137.218 C 273.600 137.008,274.230 136.718,275.000 136.574 C 275.770 136.429,276.400 136.151,276.400 135.955 C 276.400 135.760,276.749 135.600,277.176 135.600 C 277.603 135.600,278.055 135.434,278.181 135.231 C 278.306 135.028,278.947 134.743,279.605 134.599 C 280.262 134.455,280.800 134.171,280.800 133.968 C 280.800 133.766,281.160 133.600,281.600 133.600 C 282.040 133.600,282.400 133.440,282.400 133.243 C 282.400 133.047,282.895 132.767,283.500 132.621 C 285.017 132.255,286.800 131.458,286.800 131.147 C 286.800 131.005,287.430 130.771,288.200 130.626 C 288.970 130.482,289.600 130.192,289.600 129.982 C 289.600 129.772,289.870 129.600,290.200 129.600 C 290.530 129.600,290.800 129.440,290.800 129.245 C 290.800 129.050,291.610 128.769,292.600 128.621 C 293.590 128.472,294.400 128.182,294.400 127.975 C 294.400 127.769,294.670 127.600,295.000 127.600 C 295.330 127.600,295.600 127.420,295.600 127.200 C 295.600 126.980,295.883 126.800,296.229 126.800 C 297.208 126.800,296.726 125.419,295.696 125.272 C 295.203 125.202,294.800 124.977,294.800 124.772 C 294.800 124.567,294.530 124.400,294.200 124.400 C 293.870 124.400,293.600 124.232,293.600 124.027 C 293.600 123.822,293.195 123.528,292.700 123.373 C 292.205 123.219,291.710 122.972,291.600 122.825 C 291.322 122.454,288.575 121.200,288.040 121.200 C 287.798 121.200,287.600 121.020,287.600 120.800 C 287.600 120.580,287.330 120.400,287.000 120.400 C 286.670 120.400,286.400 120.240,286.400 120.045 C 286.400 119.849,285.770 119.571,285.000 119.426 C 284.230 119.282,283.600 118.992,283.600 118.782 C 283.600 118.572,283.330 118.400,283.000 118.400 C 282.670 118.400,282.400 118.240,282.400 118.045 C 282.400 117.849,281.770 117.571,281.000 117.426 C 280.230 117.282,279.600 116.992,279.600 116.782 C 279.600 116.572,279.330 116.400,279.000 116.400 C 278.670 116.400,278.400 116.240,278.400 116.045 C 278.400 115.849,277.770 115.571,277.000 115.426 C 276.230 115.282,275.600 114.992,275.600 114.782 C 275.600 114.572,275.330 114.400,275.000 114.400 C 274.670 114.400,274.400 114.243,274.400 114.050 C 274.400 113.858,273.857 113.591,273.192 113.458 C 272.528 113.326,271.587 112.846,271.100 112.393 C 270.614 111.940,269.807 111.466,269.308 111.341 C 268.809 111.216,268.400 110.953,268.400 110.757 C 268.400 110.560,268.040 110.400,267.600 110.400 C 267.160 110.400,266.800 110.234,266.800 110.032 C 266.800 109.829,266.260 109.545,265.600 109.400 C 264.940 109.255,264.400 108.971,264.400 108.768 C 264.400 108.566,264.040 108.400,263.600 108.400 C 263.160 108.400,262.800 108.234,262.800 108.032 C 262.800 107.829,262.260 107.545,261.600 107.400 C 260.940 107.255,260.400 106.971,260.400 106.768 C 260.400 106.566,260.040 106.400,259.600 106.400 C 259.160 106.400,258.800 106.234,258.800 106.032 C 258.800 105.829,258.260 105.545,257.600 105.400 C 256.940 105.255,256.400 104.971,256.400 104.768 C 256.400 104.566,256.040 104.400,255.600 104.400 C 255.160 104.400,254.800 104.234,254.800 104.032 C 254.800 103.829,254.260 103.545,253.600 103.400 C 252.940 103.255,252.400 102.971,252.400 102.768 C 252.400 102.566,252.040 102.400,251.600 102.400 C 251.160 102.400,250.800 102.223,250.800 102.008 C 250.800 101.792,250.350 101.502,249.800 101.364 C 249.250 101.226,248.800 100.953,248.800 100.757 C 248.800 100.560,248.530 100.400,248.200 100.400 C 247.870 100.400,247.600 100.228,247.600 100.018 C 247.600 99.808,246.970 99.518,246.200 99.374 C 245.430 99.229,244.800 98.951,244.800 98.755 C 244.800 98.560,244.530 98.400,244.200 98.400 C 243.870 98.400,243.600 98.228,243.600 98.018 C 243.600 97.808,242.970 97.518,242.200 97.374 C 241.430 97.229,240.800 96.951,240.800 96.755 C 240.800 96.560,240.530 96.400,240.200 96.400 C 239.870 96.400,239.600 96.228,239.600 96.018 C 239.600 95.808,238.970 95.518,238.200 95.374 C 237.430 95.229,236.800 94.951,236.800 94.755 C 236.800 94.560,236.530 94.400,236.200 94.400 C 235.870 94.400,235.600 94.228,235.600 94.018 C 235.600 93.808,234.970 93.518,234.200 93.374 C 233.430 93.229,232.800 92.951,232.800 92.755 C 232.800 92.560,232.530 92.400,232.200 92.400 C 231.870 92.400,231.600 92.234,231.600 92.032 C 231.600 91.829,231.015 91.535,230.300 91.378 C 229.585 91.221,228.775 90.771,228.500 90.378 C 228.224 89.985,227.459 89.545,226.800 89.400 C 226.140 89.255,225.600 89.013,225.600 88.863 C 225.600 88.565,222.643 87.200,221.997 87.200 C 221.779 87.200,221.600 87.020,221.600 86.800 C 221.600 86.580,221.330 86.400,221.000 86.400 C 220.670 86.400,220.400 86.240,220.400 86.045 C 220.400 85.849,219.770 85.571,219.000 85.426 C 218.230 85.282,217.600 84.992,217.600 84.782 C 217.600 84.572,217.330 84.400,217.000 84.400 C 216.670 84.400,216.400 84.240,216.400 84.045 C 216.400 83.849,215.770 83.571,215.000 83.426 C 214.230 83.282,213.600 82.992,213.600 82.782 C 213.600 82.572,213.330 82.400,213.000 82.400 C 212.670 82.400,212.400 82.240,212.400 82.045 C 212.400 81.849,211.770 81.571,211.000 81.426 C 210.230 81.282,209.600 80.992,209.600 80.782 C 209.600 80.572,209.330 80.400,209.000 80.400 C 208.670 80.400,208.400 80.247,208.400 80.060 C 208.400 79.873,207.590 79.387,206.600 78.978 C 205.610 78.570,204.800 78.107,204.800 77.950 C 204.800 77.792,204.260 77.545,203.600 77.400 C 202.940 77.255,202.400 76.971,202.400 76.768 C 202.400 76.566,202.040 76.400,201.600 76.400 C 201.160 76.400,200.800 76.234,200.800 76.032 C 200.800 75.829,200.260 75.545,199.600 75.400 C 198.940 75.255,198.400 74.971,198.400 74.768 C 198.400 74.566,198.040 74.400,197.600 74.400 C 197.160 74.400,196.800 74.234,196.800 74.032 C 196.800 73.829,196.260 73.545,195.600 73.400 C 194.940 73.255,194.400 72.971,194.400 72.768 C 194.400 72.566,194.040 72.400,193.600 72.400 C 193.160 72.400,192.800 72.234,192.800 72.032 C 192.800 71.829,192.260 71.545,191.600 71.400 C 190.940 71.255,190.400 70.971,190.400 70.768 C 190.400 70.566,190.040 70.400,189.600 70.400 C 189.160 70.400,188.800 70.240,188.800 70.043 C 188.800 69.847,188.335 69.570,187.766 69.427 C 187.197 69.284,186.363 68.824,185.912 68.404 C 185.461 67.984,184.576 67.527,183.946 67.388 C 183.316 67.250,182.800 66.971,182.800 66.768 C 182.800 66.566,182.530 66.400,182.200 66.400 C 181.870 66.400,181.600 66.228,181.600 66.018 C 181.600 65.808,180.970 65.518,180.200 65.374 C 179.430 65.229,178.800 64.951,178.800 64.755 C 178.800 64.560,178.530 64.400,178.200 64.400 C 177.870 64.400,177.600 64.228,177.600 64.018 C 177.600 63.808,176.970 63.518,176.200 63.374 C 175.430 63.229,174.800 62.951,174.800 62.755 C 174.800 62.560,174.530 62.400,174.200 62.400 C 173.870 62.400,173.600 62.228,173.600 62.018 C 173.600 61.808,172.970 61.518,172.200 61.374 C 171.430 61.229,170.800 60.951,170.800 60.755 C 170.800 60.560,170.530 60.400,170.200 60.400 C 169.870 60.400,169.600 60.228,169.600 60.018 C 169.600 59.808,168.970 59.518,168.200 59.374 C 167.430 59.229,166.800 58.951,166.800 58.755 C 166.800 58.560,166.530 58.400,166.200 58.400 C 165.870 58.400,165.600 58.232,165.600 58.027 C 165.600 57.822,165.195 57.528,164.700 57.373 C 164.205 57.219,163.710 56.972,163.600 56.825 C 163.322 56.454,160.575 55.200,160.040 55.200 C 159.798 55.200,159.600 55.020,159.600 54.800 C 159.600 54.580,159.330 54.400,159.000 54.400 C 158.670 54.400,158.400 54.240,158.400 54.045 C 158.400 53.849,157.770 53.571,157.000 53.426 C 156.230 53.282,155.600 52.992,155.600 52.782 C 155.600 52.572,155.330 52.400,155.000 52.400 C 154.670 52.400,154.400 52.240,154.400 52.045 C 154.400 51.849,153.770 51.571,153.000 51.426 C 152.230 51.282,151.600 50.992,151.600 50.782 C 151.600 50.572,151.330 50.400,151.000 50.400 C 150.670 50.400,150.400 50.240,150.400 50.045 C 150.400 49.849,149.770 49.571,149.000 49.426 C 148.230 49.282,147.600 48.992,147.600 48.782 C 147.600 48.572,147.330 48.400,147.000 48.400 C 146.670 48.400,146.400 48.242,146.400 48.050 C 146.400 47.857,145.857 47.591,145.192 47.458 C 144.528 47.326,143.587 46.846,143.100 46.393 C 142.614 45.940,141.807 45.466,141.308 45.341 C 140.809 45.216,140.400 44.953,140.400 44.757 C 140.400 44.560,140.040 44.400,139.600 44.400 C 139.160 44.400,138.800 44.234,138.800 44.032 C 138.800 43.829,138.260 43.545,137.600 43.400 C 136.940 43.255,136.400 42.971,136.400 42.768 C 136.400 42.566,136.040 42.400,135.600 42.400 C 135.160 42.400,134.800 42.234,134.800 42.032 C 134.800 41.829,134.260 41.545,133.600 41.400 C 132.940 41.255,132.400 40.971,132.400 40.768 C 132.400 40.566,132.040 40.400,131.600 40.400 C 131.160 40.400,130.800 40.234,130.800 40.032 C 130.800 39.829,130.260 39.545,129.600 39.400 C 128.940 39.255,128.400 38.971,128.400 38.768 C 128.400 38.566,128.040 38.400,127.600 38.400 C 127.160 38.400,126.800 38.234,126.800 38.032 C 126.800 37.829,126.260 37.545,125.600 37.400 C 124.940 37.255,124.400 36.971,124.400 36.768 C 124.400 36.566,124.040 36.400,123.600 36.400 C 123.160 36.400,122.800 36.223,122.800 36.008 C 122.800 35.792,122.350 35.502,121.800 35.364 C 121.250 35.226,120.800 34.953,120.800 34.757 C 120.800 34.560,120.530 34.400,120.200 34.400 C 119.870 34.400,119.600 34.228,119.600 34.018 C 119.600 33.808,118.970 33.518,118.200 33.374 C 117.430 33.229,116.800 32.951,116.800 32.755 C 116.800 32.560,116.530 32.400,116.200 32.400 C 115.870 32.400,115.600 32.228,115.600 32.018 C 115.600 31.808,114.970 31.518,114.200 31.374 C 113.430 31.229,112.800 30.951,112.800 30.755 C 112.800 30.560,112.530 30.400,112.200 30.400 C 111.870 30.400,111.600 30.228,111.600 30.018 C 111.600 29.808,110.970 29.518,110.200 29.374 C 109.430 29.229,108.800 28.951,108.800 28.755 C 108.800 28.560,108.530 28.400,108.200 28.400 C 107.870 28.400,107.600 28.228,107.600 28.018 C 107.600 27.808,106.970 27.518,106.200 27.374 C 105.430 27.229,104.800 26.951,104.800 26.755 C 104.800 26.560,104.530 26.400,104.200 26.400 C 103.870 26.400,103.600 26.234,103.600 26.032 C 103.600 25.829,103.015 25.535,102.300 25.378 C 101.585 25.221,100.775 24.771,100.500 24.378 C 100.224 23.985,99.459 23.545,98.800 23.400 C 98.140 23.255,97.600 23.013,97.600 22.863 C 97.600 22.565,94.643 21.200,93.997 21.200 C 93.779 21.200,93.600 21.020,93.600 20.800 C 93.600 20.580,93.330 20.400,93.000 20.400 C 92.670 20.400,92.400 20.240,92.400 20.045 C 92.400 19.849,91.770 19.571,91.000 19.426 C 90.230 19.282,89.600 18.992,89.600 18.782 C 89.600 18.572,89.330 18.400,89.000 18.400 C 88.670 18.400,88.400 18.240,88.400 18.045 C 88.400 17.849,87.770 17.571,87.000 17.426 C 86.230 17.282,85.600 16.992,85.600 16.782 C 85.600 16.572,85.330 16.400,85.000 16.400 C 84.670 16.400,84.400 16.240,84.400 16.045 C 84.400 15.849,83.770 15.571,83.000 15.426 C 82.230 15.282,81.600 14.992,81.600 14.782 C 81.600 14.572,81.330 14.400,81.000 14.400 C 80.670 14.400,80.400 14.264,80.400 14.099 C 80.400 13.933,79.054 13.168,77.408 12.399 C 75.763 11.629,74.413 10.865,74.408 10.700 C 74.404 10.535,74.040 10.400,73.600 10.400 C 73.160 10.400,72.800 10.234,72.800 10.032 C 72.800 9.829,72.260 9.545,71.600 9.400 C 70.940 9.255,70.400 8.971,70.400 8.768 C 70.400 8.566,70.040 8.400,69.600 8.400 C 69.160 8.400,68.800 8.234,68.800 8.032 C 68.800 7.829,68.260 7.545,67.600 7.400 C 66.940 7.255,66.400 6.971,66.400 6.768 C 66.400 6.566,66.040 6.400,65.600 6.400 C 65.160 6.400,64.800 6.234,64.800 6.032 C 64.800 5.829,64.260 5.545,63.600 5.400 C 62.940 5.255,62.400 4.971,62.400 4.768 C 62.400 4.566,62.040 4.400,61.600 4.400 C 61.160 4.400,60.800 4.240,60.800 4.043 C 60.800 3.847,60.335 3.570,59.766 3.427 C 59.197 3.284,58.369 2.830,57.926 2.417 C 57.483 2.005,56.646 1.548,56.064 1.402 C 55.483 1.256,54.897 0.957,54.762 0.738 C 54.626 0.519,53.769 0.239,52.858 0.117 L 51.200 -0.105 51.200 118.747 M110.653 109.579 C 110.611 131.806,110.708 138.067,111.100 138.459 C 111.375 138.735,111.600 139.274,111.600 139.659 C 111.600 143.245,115.959 146.901,121.156 147.674 C 129.055 148.849,134.676 145.380,136.504 138.200 C 136.955 136.429,137.468 115.295,137.548 95.180 C 137.586 85.647,137.729 82.031,138.080 81.680 C 138.843 80.917,159.050 81.003,159.480 81.771 C 159.935 82.583,159.393 135.980,158.894 139.600 C 158.666 141.250,158.259 143.140,157.990 143.800 C 157.721 144.460,157.371 145.360,157.214 145.800 C 155.418 150.808,151.160 156.315,147.000 159.011 C 144.210 160.819,140.423 162.778,139.695 162.791 C 139.417 162.796,138.877 162.958,138.495 163.151 C 133.053 165.900,114.315 166.119,108.376 163.503 C 107.619 163.170,106.100 162.573,105.000 162.178 C 98.285 159.760,91.903 152.616,89.835 145.200 C 89.436 143.770,88.905 142.060,88.655 141.400 C 88.185 140.160,88.155 82.320,88.624 81.561 C 88.748 81.361,93.715 81.200,99.776 81.200 L 110.706 81.200 110.653 109.579 M346.400 162.757 C 346.400 162.953,345.950 163.226,345.400 163.364 C 344.850 163.502,344.400 163.792,344.400 164.008 C 344.400 164.223,344.130 164.400,343.800 164.400 C 343.470 164.400,343.200 164.560,343.200 164.755 C 343.200 164.951,342.570 165.229,341.800 165.374 C 341.030 165.518,340.400 165.808,340.400 166.018 C 340.400 166.228,340.130 166.400,339.800 166.400 C 339.470 166.400,339.200 166.560,339.200 166.755 C 339.200 166.951,338.570 167.229,337.800 167.374 C 337.030 167.518,336.400 167.808,336.400 168.018 C 336.400 168.228,336.130 168.400,335.800 168.400 C 335.470 168.400,335.200 168.560,335.200 168.755 C 335.200 168.951,334.570 169.229,333.800 169.374 C 333.030 169.518,332.400 169.808,332.400 170.018 C 332.400 170.228,332.130 170.400,331.800 170.400 C 331.470 170.400,331.200 170.560,331.200 170.755 C 331.200 170.951,330.570 171.229,329.800 171.374 C 329.030 171.518,328.400 171.808,328.400 172.018 C 328.400 172.228,328.130 172.400,327.800 172.400 C 327.470 172.400,327.200 172.566,327.200 172.768 C 327.200 172.971,326.684 173.250,326.054 173.388 C 325.424 173.527,324.539 173.984,324.088 174.404 C 323.637 174.824,322.803 175.284,322.234 175.427 C 321.665 175.570,321.200 175.847,321.200 176.043 C 321.200 176.240,320.840 176.400,320.400 176.400 C 319.960 176.400,319.600 176.566,319.600 176.768 C 319.600 176.971,319.060 177.255,318.400 177.400 C 317.740 177.545,317.200 177.829,317.200 178.032 C 317.200 178.234,316.840 178.400,316.400 178.400 C 315.960 178.400,315.600 178.566,315.600 178.768 C 315.600 178.971,315.060 179.255,314.400 179.400 C 313.740 179.545,313.200 179.829,313.200 180.032 C 313.200 180.234,312.840 180.400,312.400 180.400 C 311.960 180.400,311.600 180.566,311.600 180.768 C 311.600 180.971,311.060 181.255,310.400 181.400 C 309.740 181.545,309.200 181.829,309.200 182.032 C 309.200 182.234,308.840 182.400,308.400 182.400 C 307.960 182.400,307.600 182.566,307.600 182.768 C 307.600 182.971,307.060 183.255,306.400 183.400 C 305.740 183.545,305.200 183.792,305.200 183.950 C 305.200 184.107,304.390 184.570,303.400 184.978 C 302.410 185.387,301.600 185.873,301.600 186.060 C 301.600 186.247,301.330 186.400,301.000 186.400 C 300.670 186.400,300.400 186.572,300.400 186.782 C 300.400 186.992,299.770 187.282,299.000 187.426 C 298.230 187.571,297.600 187.849,297.600 188.045 C 297.600 188.240,297.330 188.400,297.000 188.400 C 296.670 188.400,296.400 188.572,296.400 188.782 C 296.400 188.992,295.770 189.282,295.000 189.426 C 294.230 189.571,293.600 189.849,293.600 190.045 C 293.600 190.240,293.330 190.400,293.000 190.400 C 292.670 190.400,292.400 190.572,292.400 190.782 C 292.400 190.992,291.770 191.282,291.000 191.426 C 290.230 191.571,289.600 191.849,289.600 192.045 C 289.600 192.240,289.330 192.400,289.000 192.400 C 288.670 192.400,288.400 192.580,288.400 192.800 C 288.400 193.020,288.221 193.200,288.003 193.200 C 287.357 193.200,284.400 194.565,284.400 194.863 C 284.400 195.013,283.860 195.255,283.200 195.400 C 282.541 195.545,281.776 195.985,281.500 196.378 C 281.225 196.771,280.415 197.221,279.700 197.378 C 278.985 197.535,278.400 197.829,278.400 198.032 C 278.400 198.234,278.130 198.400,277.800 198.400 C 277.470 198.400,277.200 198.560,277.200 198.755 C 277.200 198.951,276.570 199.229,275.800 199.374 C 275.030 199.518,274.400 199.808,274.400 200.018 C 274.400 200.228,274.130 200.400,273.800 200.400 C 273.470 200.400,273.200 200.560,273.200 200.755 C 273.200 200.951,272.570 201.229,271.800 201.374 C 271.030 201.518,270.400 201.808,270.400 202.018 C 270.400 202.228,270.130 202.400,269.800 202.400 C 269.470 202.400,269.200 202.560,269.200 202.755 C 269.200 202.951,268.570 203.229,267.800 203.374 C 267.030 203.518,266.400 203.808,266.400 204.018 C 266.400 204.228,266.130 204.400,265.800 204.400 C 265.470 204.400,265.200 204.560,265.200 204.755 C 265.200 204.951,264.570 205.229,263.800 205.374 C 263.030 205.518,262.400 205.808,262.400 206.018 C 262.400 206.228,262.130 206.400,261.800 206.400 C 261.470 206.400,261.200 206.560,261.200 206.757 C 261.200 206.953,260.750 207.226,260.200 207.364 C 259.650 207.502,259.200 207.792,259.200 208.008 C 259.200 208.223,258.840 208.400,258.400 208.400 C 257.960 208.400,257.600 208.566,257.600 208.768 C 257.600 208.971,257.060 209.255,256.400 209.400 C 255.740 209.545,255.200 209.829,255.200 210.032 C 255.200 210.234,254.840 210.400,254.400 210.400 C 253.960 210.400,253.600 210.566,253.600 210.768 C 253.600 210.971,253.060 211.255,252.400 211.400 C 251.740 211.545,251.200 211.829,251.200 212.032 C 251.200 212.234,250.840 212.400,250.400 212.400 C 249.960 212.400,249.600 212.566,249.600 212.768 C 249.600 212.971,249.060 213.255,248.400 213.400 C 247.740 213.545,247.200 213.829,247.200 214.032 C 247.200 214.234,246.840 214.400,246.400 214.400 C 245.960 214.400,245.600 214.566,245.600 214.768 C 245.600 214.971,245.060 215.255,244.400 215.400 C 243.740 215.545,243.200 215.829,243.200 216.032 C 243.200 216.234,242.840 216.400,242.400 216.400 C 241.960 216.400,241.600 216.560,241.600 216.757 C 241.600 216.953,241.191 217.216,240.692 217.341 C 240.193 217.466,239.386 217.940,238.900 218.393 C 238.413 218.846,237.472 219.326,236.808 219.458 C 236.143 219.591,235.600 219.857,235.600 220.050 C 235.600 220.243,235.330 220.400,235.000 220.400 C 234.670 220.400,234.400 220.572,234.400 220.782 C 234.400 220.992,233.770 221.282,233.000 221.426 C 232.230 221.571,231.600 221.849,231.600 222.045 C 231.600 222.240,231.330 222.400,231.000 222.400 C 230.670 222.400,230.400 222.572,230.400 222.782 C 230.400 222.992,229.770 223.282,229.000 223.426 C 228.230 223.571,227.600 223.849,227.600 224.045 C 227.600 224.240,227.330 224.400,227.000 224.400 C 226.670 224.400,226.400 224.572,226.400 224.782 C 226.400 224.992,225.770 225.282,225.000 225.426 C 224.230 225.571,223.600 225.849,223.600 226.045 C 223.600 226.240,223.330 226.400,223.000 226.400 C 222.670 226.400,222.400 226.580,222.400 226.800 C 222.400 227.020,222.202 227.200,221.960 227.200 C 221.425 227.200,218.678 228.454,218.400 228.825 C 218.290 228.972,217.795 229.219,217.300 229.373 C 216.805 229.528,216.400 229.822,216.400 230.027 C 216.400 230.232,216.130 230.400,215.800 230.400 C 215.470 230.400,215.200 230.560,215.200 230.755 C 215.200 230.951,214.570 231.229,213.800 231.374 C 213.030 231.518,212.400 231.808,212.400 232.018 C 212.400 232.228,212.130 232.400,211.800 232.400 C 211.470 232.400,211.200 232.560,211.200 232.755 C 211.200 232.951,210.570 233.229,209.800 233.374 C 209.030 233.518,208.400 233.808,208.400 234.018 C 208.400 234.228,208.130 234.400,207.800 234.400 C 207.470 234.400,207.200 234.560,207.200 234.755 C 207.200 234.951,206.570 235.229,205.800 235.374 C 205.030 235.518,204.400 235.808,204.400 236.018 C 204.400 236.228,204.130 236.400,203.800 236.400 C 203.470 236.400,203.200 236.560,203.200 236.755 C 203.200 236.951,202.570 237.229,201.800 237.374 C 201.030 237.518,200.400 237.808,200.400 238.018 C 200.400 238.228,200.130 238.400,199.800 238.400 C 199.470 238.400,199.200 238.566,199.200 238.768 C 199.200 238.971,198.684 239.250,198.054 239.388 C 197.424 239.527,196.539 239.984,196.088 240.404 C 195.637 240.824,194.803 241.284,194.234 241.427 C 193.665 241.570,193.200 241.847,193.200 242.043 C 193.200 242.240,192.840 242.400,192.400 242.400 C 191.960 242.400,191.600 242.566,191.600 242.768 C 191.600 242.971,191.060 243.255,190.400 243.400 C 189.740 243.545,189.200 243.829,189.200 244.032 C 189.200 244.234,188.840 244.400,188.400 244.400 C 187.960 244.400,187.600 244.566,187.600 244.768 C 187.600 244.971,187.060 245.255,186.400 245.400 C 185.740 245.545,185.200 245.829,185.200 246.032 C 185.200 246.234,184.840 246.400,184.400 246.400 C 183.960 246.400,183.600 246.566,183.600 246.768 C 183.600 246.971,183.060 247.255,182.400 247.400 C 181.740 247.545,181.200 247.829,181.200 248.032 C 181.200 248.234,180.840 248.400,180.400 248.400 C 179.960 248.400,179.600 248.566,179.600 248.768 C 179.600 248.971,179.060 249.255,178.400 249.400 C 177.740 249.545,177.200 249.792,177.200 249.950 C 177.200 250.107,176.390 250.570,175.400 250.978 C 174.410 251.387,173.600 251.873,173.600 252.060 C 173.600 252.247,173.330 252.400,173.000 252.400 C 172.670 252.400,172.400 252.572,172.400 252.782 C 172.400 252.992,171.770 253.282,171.000 253.426 C 170.230 253.571,169.600 253.849,169.600 254.045 C 169.600 254.240,169.330 254.400,169.000 254.400 C 168.670 254.400,168.400 254.572,168.400 254.782 C 168.400 254.992,167.770 255.282,167.000 255.426 C 166.230 255.571,165.600 255.849,165.600 256.045 C 165.600 256.240,165.330 256.400,165.000 256.400 C 164.670 256.400,164.400 256.572,164.400 256.782 C 164.400 256.992,163.770 257.282,163.000 257.426 C 162.230 257.571,161.600 257.849,161.600 258.045 C 161.600 258.240,161.330 258.400,161.000 258.400 C 160.670 258.400,160.400 258.580,160.400 258.800 C 160.400 259.020,160.221 259.200,160.003 259.200 C 159.357 259.200,156.400 260.565,156.400 260.863 C 156.400 261.013,155.860 261.255,155.200 261.400 C 154.541 261.545,153.776 261.985,153.500 262.378 C 153.225 262.771,152.415 263.221,151.700 263.378 C 150.985 263.535,150.400 263.829,150.400 264.032 C 150.400 264.234,150.130 264.400,149.800 264.400 C 149.470 264.400,149.200 264.560,149.200 264.755 C 149.200 264.951,148.570 265.229,147.800 265.374 C 147.030 265.518,146.400 265.808,146.400 266.018 C 146.400 266.228,146.130 266.400,145.800 266.400 C 145.470 266.400,145.200 266.560,145.200 266.755 C 145.200 266.951,144.570 267.229,143.800 267.374 C 143.030 267.518,142.400 267.808,142.400 268.018 C 142.400 268.228,142.130 268.400,141.800 268.400 C 141.470 268.400,141.200 268.560,141.200 268.755 C 141.200 268.951,140.570 269.229,139.800 269.374 C 139.030 269.518,138.400 269.808,138.400 270.018 C 138.400 270.228,138.130 270.400,137.800 270.400 C 137.470 270.400,137.200 270.560,137.200 270.755 C 137.200 270.951,136.570 271.229,135.800 271.374 C 135.030 271.518,134.400 271.808,134.400 272.018 C 134.400 272.228,134.130 272.400,133.800 272.400 C 133.470 272.400,133.200 272.560,133.200 272.757 C 133.200 272.953,132.750 273.226,132.200 273.364 C 131.650 273.502,131.200 273.792,131.200 274.008 C 131.200 274.223,130.840 274.400,130.400 274.400 C 129.960 274.400,129.600 274.566,129.600 274.768 C 129.600 274.971,129.060 275.255,128.400 275.400 C 127.740 275.545,127.200 275.829,127.200 276.032 C 127.200 276.234,126.840 276.400,126.400 276.400 C 125.960 276.400,125.600 276.566,125.600 276.768 C 125.600 276.971,125.060 277.255,124.400 277.400 C 123.740 277.545,123.200 277.829,123.200 278.032 C 123.200 278.234,122.840 278.400,122.400 278.400 C 121.960 278.400,121.600 278.566,121.600 278.768 C 121.600 278.971,121.060 279.255,120.400 279.400 C 119.740 279.545,119.200 279.829,119.200 280.032 C 119.200 280.234,118.840 280.400,118.400 280.400 C 117.960 280.400,117.600 280.566,117.600 280.768 C 117.600 280.971,117.060 281.255,116.400 281.400 C 115.740 281.545,115.200 281.829,115.200 282.032 C 115.200 282.234,114.855 282.400,114.433 282.400 C 114.012 282.400,113.607 282.535,113.533 282.700 C 113.460 282.865,112.549 283.416,111.509 283.924 C 110.469 284.431,109.513 285.016,109.385 285.224 C 109.257 285.431,108.803 285.600,108.376 285.600 C 107.949 285.600,107.600 285.780,107.600 286.000 C 107.600 286.220,107.330 286.400,107.000 286.400 C 106.670 286.400,106.400 286.566,106.400 286.768 C 106.400 286.971,105.815 287.263,105.100 287.418 C 103.368 287.794,102.292 289.600,103.800 289.600 C 104.130 289.600,104.400 289.772,104.400 289.982 C 104.400 290.192,105.030 290.482,105.800 290.626 C 106.570 290.771,107.200 291.049,107.200 291.245 C 107.200 291.440,107.470 291.600,107.800 291.600 C 108.130 291.600,108.400 291.764,108.400 291.965 C 108.400 292.166,109.120 292.451,110.000 292.600 C 110.880 292.749,111.600 293.034,111.600 293.235 C 111.600 293.436,111.960 293.600,112.400 293.600 C 112.840 293.600,113.200 293.766,113.200 293.968 C 113.200 294.171,113.740 294.455,114.400 294.600 C 115.060 294.745,115.600 295.029,115.600 295.232 C 115.600 295.434,115.949 295.600,116.376 295.600 C 116.803 295.600,117.251 295.760,117.372 295.955 C 117.493 296.150,118.223 296.428,118.996 296.573 C 119.768 296.718,120.400 297.008,120.400 297.218 C 120.400 297.428,120.670 297.600,121.000 297.600 C 121.330 297.600,121.600 297.760,121.600 297.955 C 121.600 298.151,122.230 298.429,123.000 298.574 C 123.770 298.718,124.400 299.008,124.400 299.218 C 124.400 299.428,124.850 299.600,125.400 299.600 C 125.950 299.600,126.400 299.772,126.400 299.982 C 126.400 300.192,127.030 300.482,127.800 300.626 C 128.570 300.771,129.200 301.049,129.200 301.245 C 129.200 301.440,129.470 301.600,129.800 301.600 C 130.130 301.600,130.400 301.764,130.400 301.965 C 130.400 302.166,131.120 302.451,132.000 302.600 C 132.880 302.749,133.600 303.034,133.600 303.235 C 133.600 303.436,133.960 303.600,134.400 303.600 C 134.840 303.600,135.200 303.766,135.200 303.968 C 135.200 304.171,135.740 304.455,136.400 304.600 C 137.060 304.745,137.600 305.029,137.600 305.232 C 137.600 305.434,137.949 305.600,138.376 305.600 C 138.803 305.600,139.251 305.760,139.372 305.955 C 139.493 306.150,140.223 306.428,140.996 306.573 C 141.768 306.718,142.400 307.008,142.400 307.218 C 142.400 307.428,142.670 307.600,143.000 307.600 C 143.330 307.600,143.600 307.760,143.600 307.955 C 143.600 308.151,144.230 308.429,145.000 308.574 C 145.770 308.718,146.400 309.008,146.400 309.218 C 146.400 309.428,146.850 309.600,147.400 309.600 C 147.950 309.600,148.400 309.772,148.400 309.982 C 148.400 310.192,149.030 310.482,149.800 310.626 C 150.570 310.771,151.200 311.049,151.200 311.245 C 151.200 311.440,151.470 311.600,151.800 311.600 C 152.130 311.600,152.400 311.764,152.400 311.965 C 152.400 312.166,153.120 312.451,154.000 312.600 C 154.880 312.749,155.600 313.034,155.600 313.235 C 155.600 313.436,155.960 313.600,156.400 313.600 C 156.840 313.600,157.200 313.766,157.200 313.968 C 157.200 314.171,157.740 314.455,158.400 314.600 C 159.060 314.745,159.600 315.029,159.600 315.232 C 159.600 315.434,159.949 315.600,160.376 315.600 C 160.803 315.600,161.251 315.760,161.372 315.955 C 161.493 316.150,162.223 316.428,162.996 316.573 C 163.768 316.718,164.400 317.008,164.400 317.218 C 164.400 317.428,164.670 317.600,165.000 317.600 C 165.330 317.600,165.600 317.760,165.600 317.955 C 165.600 318.151,166.230 318.429,167.000 318.574 C 167.770 318.718,168.400 319.008,168.400 319.218 C 168.400 319.428,168.850 319.600,169.400 319.600 C 169.950 319.600,170.400 319.772,170.400 319.982 C 170.400 320.192,171.030 320.482,171.800 320.626 C 172.570 320.771,173.200 321.049,173.200 321.245 C 173.200 321.440,173.470 321.600,173.800 321.600 C 174.130 321.600,174.400 321.764,174.400 321.965 C 174.400 322.166,175.120 322.451,176.000 322.600 C 176.880 322.749,177.600 323.034,177.600 323.235 C 177.600 323.436,177.960 323.600,178.400 323.600 C 178.840 323.600,179.200 323.766,179.200 323.968 C 179.200 324.171,179.740 324.455,180.400 324.600 C 181.060 324.745,181.600 325.029,181.600 325.232 C 181.600 325.434,181.949 325.600,182.376 325.600 C 182.803 325.600,183.251 325.760,183.372 325.955 C 183.493 326.150,184.223 326.428,184.996 326.573 C 185.768 326.718,186.400 327.008,186.400 327.218 C 186.400 327.428,186.670 327.600,187.000 327.600 C 187.330 327.600,187.600 327.760,187.600 327.955 C 187.600 328.151,188.230 328.429,189.000 328.574 C 189.770 328.718,190.400 329.008,190.400 329.218 C 190.400 329.428,190.850 329.600,191.400 329.600 C 191.950 329.600,192.400 329.772,192.400 329.982 C 192.400 330.192,193.030 330.482,193.800 330.626 C 194.570 330.771,195.200 331.049,195.200 331.245 C 195.200 331.440,195.470 331.600,195.800 331.600 C 196.130 331.600,196.400 331.764,196.400 331.965 C 196.400 332.166,197.120 332.451,198.000 332.600 C 198.880 332.749,199.600 333.034,199.600 333.235 C 199.600 333.436,199.960 333.600,200.400 333.600 C 200.840 333.600,201.200 333.766,201.200 333.968 C 201.200 334.171,201.740 334.455,202.400 334.600 C 203.060 334.745,203.600 335.029,203.600 335.232 C 203.600 335.434,203.949 335.600,204.376 335.600 C 204.803 335.600,205.251 335.760,205.372 335.955 C 205.493 336.150,206.223 336.428,206.996 336.573 C 207.768 336.718,208.400 337.008,208.400 337.218 C 208.400 337.428,208.670 337.600,209.000 337.600 C 209.330 337.600,209.600 337.760,209.600 337.955 C 209.600 338.151,210.230 338.429,211.000 338.574 C 211.770 338.718,212.400 339.008,212.400 339.218 C 212.400 339.428,212.850 339.600,213.400 339.600 C 213.950 339.600,214.400 339.772,214.400 339.982 C 214.400 340.192,215.030 340.482,215.800 340.626 C 216.570 340.771,217.200 341.049,217.200 341.245 C 217.200 341.440,217.470 341.600,217.800 341.600 C 218.130 341.600,218.400 341.764,218.400 341.965 C 218.400 342.166,219.120 342.451,220.000 342.600 C 220.880 342.749,221.600 343.034,221.600 343.235 C 221.600 343.436,221.960 343.600,222.400 343.600 C 222.840 343.600,223.200 343.766,223.200 343.968 C 223.200 344.171,223.740 344.455,224.400 344.600 C 225.060 344.745,225.600 345.029,225.600 345.232 C 225.600 345.434,225.949 345.600,226.376 345.600 C 226.803 345.600,227.251 345.760,227.372 345.955 C 227.493 346.150,228.223 346.428,228.996 346.573 C 229.768 346.718,230.400 347.008,230.400 347.218 C 230.400 347.428,230.670 347.600,231.000 347.600 C 231.330 347.600,231.600 347.760,231.600 347.955 C 231.600 348.151,232.230 348.429,233.000 348.574 C 233.770 348.718,234.400 349.008,234.400 349.218 C 234.400 349.428,234.850 349.600,235.400 349.600 C 235.950 349.600,236.400 349.772,236.400 349.982 C 236.400 350.192,237.030 350.482,237.800 350.626 C 238.570 350.771,239.200 351.049,239.200 351.245 C 239.200 351.440,239.470 351.600,239.800 351.600 C 240.130 351.600,240.400 351.764,240.400 351.965 C 240.400 352.166,241.120 352.451,242.000 352.600 C 242.880 352.749,243.600 353.034,243.600 353.235 C 243.600 353.436,243.960 353.600,244.400 353.600 C 244.840 353.600,245.200 353.766,245.200 353.968 C 245.200 354.171,245.740 354.455,246.400 354.600 C 247.060 354.745,247.600 355.029,247.600 355.232 C 247.600 355.434,247.949 355.600,248.376 355.600 C 248.803 355.600,249.251 355.760,249.372 355.955 C 249.493 356.150,250.223 356.428,250.996 356.573 C 251.768 356.718,252.400 357.008,252.400 357.218 C 252.400 357.428,252.670 357.600,253.000 357.600 C 253.330 357.600,253.600 357.760,253.600 357.955 C 253.600 358.151,254.230 358.429,255.000 358.574 C 255.770 358.718,256.400 359.008,256.400 359.218 C 256.400 359.428,256.850 359.600,257.400 359.600 C 257.950 359.600,258.400 359.772,258.400 359.982 C 258.400 360.192,259.030 360.482,259.800 360.626 C 260.570 360.771,261.200 361.049,261.200 361.245 C 261.200 361.440,261.470 361.600,261.800 361.600 C 262.130 361.600,262.400 361.764,262.400 361.965 C 262.400 362.166,263.120 362.451,264.000 362.600 C 264.880 362.749,265.600 363.034,265.600 363.235 C 265.600 363.436,265.960 363.600,266.400 363.600 C 266.840 363.600,267.200 363.766,267.200 363.968 C 267.200 364.171,267.740 364.455,268.400 364.600 C 269.060 364.745,269.600 365.029,269.600 365.232 C 269.600 365.434,269.949 365.600,270.376 365.600 C 270.803 365.600,271.251 365.760,271.372 365.955 C 271.493 366.150,272.223 366.428,272.996 366.573 C 273.768 366.718,274.400 367.008,274.400 367.218 C 274.400 367.428,274.670 367.600,275.000 367.600 C 275.330 367.600,275.600 367.760,275.600 367.955 C 275.600 368.151,276.230 368.429,277.000 368.574 C 277.770 368.718,278.400 369.008,278.400 369.218 C 278.400 369.428,278.850 369.600,279.400 369.600 C 279.950 369.600,280.400 369.772,280.400 369.982 C 280.400 370.192,281.030 370.482,281.800 370.626 C 282.570 370.771,283.200 371.049,283.200 371.245 C 283.200 371.440,283.470 371.600,283.800 371.600 C 284.130 371.600,284.400 371.764,284.400 371.965 C 284.400 372.166,285.120 372.451,286.000 372.600 C 286.880 372.749,287.600 373.034,287.600 373.235 C 287.600 373.436,287.960 373.600,288.400 373.600 C 288.840 373.600,289.200 373.766,289.200 373.968 C 289.200 374.171,289.740 374.455,290.400 374.600 C 291.060 374.745,291.600 375.029,291.600 375.232 C 291.600 375.434,291.949 375.600,292.376 375.600 C 292.803 375.600,293.251 375.760,293.372 375.955 C 293.493 376.150,294.223 376.428,294.996 376.573 C 295.768 376.718,296.400 377.008,296.400 377.218 C 296.400 377.428,296.670 377.600,297.000 377.600 C 297.330 377.600,297.600 377.760,297.600 377.955 C 297.600 378.151,298.230 378.429,299.000 378.574 C 299.770 378.718,300.400 379.008,300.400 379.218 C 300.400 379.428,300.850 379.600,301.400 379.600 C 301.950 379.600,302.400 379.772,302.400 379.982 C 302.400 380.192,303.030 380.482,303.800 380.626 C 304.570 380.771,305.200 381.049,305.200 381.245 C 305.200 381.440,305.470 381.600,305.800 381.600 C 306.130 381.600,306.400 381.764,306.400 381.965 C 306.400 382.166,307.120 382.451,308.000 382.600 C 308.880 382.749,309.600 383.034,309.600 383.235 C 309.600 383.436,309.960 383.600,310.400 383.600 C 310.840 383.600,311.200 383.766,311.200 383.968 C 311.200 384.171,311.740 384.455,312.400 384.600 C 313.060 384.745,313.600 385.029,313.600 385.232 C 313.600 385.434,313.949 385.600,314.376 385.600 C 314.803 385.600,315.251 385.760,315.372 385.955 C 315.493 386.150,316.223 386.428,316.996 386.573 C 317.768 386.718,318.400 387.008,318.400 387.218 C 318.400 387.428,318.670 387.600,319.000 387.600 C 319.330 387.600,319.600 387.760,319.600 387.955 C 319.600 388.151,320.230 388.429,321.000 388.574 C 321.770 388.718,322.400 389.008,322.400 389.218 C 322.400 389.428,322.850 389.600,323.400 389.600 C 323.950 389.600,324.400 389.772,324.400 389.982 C 324.400 390.192,325.030 390.482,325.800 390.626 C 326.570 390.771,327.200 391.049,327.200 391.245 C 327.200 391.440,327.470 391.600,327.800 391.600 C 328.130 391.600,328.400 391.764,328.400 391.965 C 328.400 392.166,329.120 392.451,330.000 392.600 C 330.880 392.749,331.600 393.034,331.600 393.235 C 331.600 393.436,331.960 393.600,332.400 393.600 C 332.840 393.600,333.200 393.766,333.200 393.968 C 333.200 394.171,333.740 394.455,334.400 394.600 C 335.060 394.745,335.600 395.029,335.600 395.232 C 335.600 395.434,335.949 395.600,336.376 395.600 C 336.803 395.600,337.251 395.760,337.372 395.955 C 337.493 396.150,338.223 396.428,338.996 396.573 C 339.768 396.718,340.400 397.008,340.400 397.218 C 340.400 397.428,340.670 397.600,341.000 397.600 C 341.330 397.600,341.600 397.760,341.600 397.955 C 341.600 398.151,342.217 398.427,342.971 398.568 C 343.725 398.710,344.400 398.989,344.471 399.188 C 344.542 399.388,345.545 399.675,346.700 399.827 L 348.800 400.103 348.800 281.252 L 348.800 162.400 347.600 162.400 C 346.940 162.400,346.400 162.560,346.400 162.757 M262.304 240.900 C 262.524 241.175,262.807 242.030,262.930 242.800 C 263.054 243.570,263.332 245.010,263.547 246.000 C 263.762 246.990,264.230 249.330,264.588 251.200 C 264.946 253.070,265.396 255.320,265.588 256.200 C 265.780 257.080,266.230 259.330,266.588 261.200 C 266.946 263.070,267.396 265.320,267.588 266.200 C 267.780 267.080,268.230 269.330,268.588 271.200 C 268.946 273.070,269.396 275.320,269.588 276.200 C 269.780 277.080,270.230 279.330,270.588 281.200 C 270.946 283.070,271.414 285.410,271.627 286.400 C 271.840 287.390,272.237 289.581,272.509 291.268 C 272.780 292.955,273.137 294.470,273.301 294.634 C 273.466 294.799,273.603 295.488,273.606 296.167 C 273.624 299.852,274.481 298.399,275.827 292.400 C 276.197 290.750,276.634 289.040,276.799 288.600 C 276.963 288.160,277.410 286.360,277.793 284.600 C 278.175 282.840,278.623 281.040,278.788 280.600 C 278.953 280.160,279.390 278.450,279.758 276.800 C 280.127 275.150,280.590 273.170,280.786 272.400 C 280.982 271.630,281.441 269.740,281.805 268.200 C 282.170 266.660,282.609 264.950,282.782 264.400 C 282.955 263.850,283.410 261.960,283.792 260.200 C 284.175 258.440,284.625 256.640,284.793 256.200 C 284.960 255.760,285.408 253.960,285.786 252.200 C 286.165 250.440,286.638 248.687,286.837 248.305 C 287.037 247.923,287.201 247.203,287.202 246.705 C 287.202 246.207,287.534 244.630,287.938 243.200 L 288.673 240.600 302.011 240.495 C 317.147 240.375,315.941 240.063,316.687 244.289 C 316.989 246.000,317.411 248.210,317.625 249.200 C 317.839 250.190,318.250 252.350,318.538 254.000 C 318.825 255.650,319.167 257.270,319.296 257.600 C 319.529 258.193,319.628 258.702,320.574 264.200 C 320.839 265.740,321.163 267.270,321.294 267.600 C 321.529 268.192,321.627 268.697,322.574 274.200 C 322.839 275.740,323.166 277.270,323.301 277.600 C 323.435 277.930,323.639 278.830,323.753 279.600 C 324.024 281.427,325.049 286.862,325.600 289.400 C 325.839 290.500,326.289 292.750,326.600 294.400 C 326.911 296.050,327.357 298.300,327.590 299.400 C 327.824 300.500,328.250 302.750,328.538 304.400 C 328.825 306.050,329.167 307.670,329.296 308.000 C 329.542 308.627,329.788 309.926,330.546 314.600 C 330.796 316.140,331.113 317.580,331.250 317.800 C 331.388 318.020,331.626 319.235,331.779 320.500 L 332.058 322.800 321.036 322.800 L 310.015 322.800 309.792 321.900 C 309.669 321.405,309.400 319.740,309.194 318.200 C 308.988 316.660,308.660 314.410,308.465 313.200 C 308.270 311.990,307.892 309.290,307.626 307.200 C 307.359 305.110,306.989 302.770,306.804 302.000 C 306.618 301.230,306.186 298.620,305.843 296.200 C 305.500 293.780,305.116 291.170,304.989 290.400 C 304.698 288.628,304.257 285.586,303.626 281.000 C 303.354 279.020,302.981 276.770,302.797 276.000 C 302.613 275.230,302.168 272.625,301.809 270.212 C 301.030 264.973,300.965 264.853,300.603 267.976 C 300.448 269.310,300.159 270.502,299.961 270.624 C 299.762 270.747,299.600 271.347,299.600 271.957 C 299.600 272.567,299.465 273.201,299.301 273.366 C 299.136 273.531,298.790 274.776,298.531 276.133 C 297.879 279.557,297.575 280.902,297.294 281.600 C 297.076 282.145,296.466 284.661,295.793 287.800 C 295.651 288.460,295.427 289.270,295.294 289.600 C 295.076 290.145,294.466 292.661,293.793 295.800 C 293.651 296.460,293.428 297.270,293.297 297.600 C 293.166 297.930,292.834 299.280,292.560 300.600 C 291.737 304.559,291.546 305.372,291.294 306.000 C 291.076 306.545,290.466 309.061,289.793 312.200 C 289.651 312.860,289.427 313.670,289.294 314.000 C 289.056 314.595,288.180 318.295,287.732 320.600 C 287.293 322.863,287.674 322.800,274.378 322.800 C 262.992 322.800,262.037 322.747,261.833 322.100 C 261.711 321.715,261.420 320.500,261.186 319.400 C 260.952 318.300,260.606 316.770,260.417 316.000 C 260.227 315.230,259.853 313.520,259.585 312.200 C 259.317 310.880,258.962 309.440,258.796 309.000 C 258.368 307.868,257.189 302.340,257.195 301.495 C 257.198 301.107,257.035 300.477,256.833 300.095 C 256.631 299.713,256.171 297.960,255.812 296.200 C 255.158 293.000,254.997 292.318,253.826 287.774 C 253.482 286.439,253.200 284.952,253.200 284.468 C 253.200 283.985,253.038 283.277,252.840 282.895 C 252.643 282.513,252.186 280.760,251.826 279.000 C 251.466 277.240,251.009 275.170,250.811 274.400 C 250.613 273.630,250.170 271.908,249.826 270.574 C 249.482 269.239,249.200 267.654,249.200 267.050 C 249.200 265.493,248.527 266.103,248.265 267.897 C 247.894 270.439,247.552 272.172,247.299 272.800 C 247.165 273.130,246.839 274.660,246.574 276.200 C 246.309 277.740,245.967 279.720,245.814 280.600 C 245.661 281.480,245.387 282.560,245.204 283.000 C 244.916 283.693,244.504 285.824,243.734 290.600 C 243.628 291.260,243.432 292.070,243.299 292.400 C 243.071 292.963,242.248 297.261,241.765 300.400 C 241.647 301.170,241.398 302.160,241.211 302.600 C 240.917 303.293,240.509 305.393,239.734 310.200 C 239.628 310.860,239.432 311.670,239.299 312.000 C 239.052 312.611,238.161 317.305,237.742 320.200 C 237.352 322.891,237.751 322.800,226.375 322.800 C 215.074 322.800,215.340 322.864,216.013 320.308 C 216.709 317.668,217.097 316.054,217.821 312.800 C 218.187 311.150,218.648 309.487,218.844 309.105 C 219.040 308.723,219.200 308.033,219.200 307.571 C 219.200 306.526,220.372 301.644,220.848 300.705 C 221.041 300.323,221.200 299.633,221.200 299.171 C 221.200 298.126,222.372 293.244,222.848 292.305 C 223.041 291.923,223.202 291.293,223.205 290.905 C 223.207 290.517,223.578 288.760,224.028 287.000 C 224.478 285.240,225.123 282.630,225.460 281.200 C 226.190 278.100,226.522 276.712,227.418 273.000 C 227.789 271.460,228.182 269.613,228.291 268.896 C 228.400 268.179,228.649 267.494,228.844 267.373 C 229.040 267.252,229.200 266.698,229.200 266.142 C 229.200 264.962,230.334 260.117,230.848 259.105 C 231.041 258.723,231.200 258.033,231.200 257.571 C 231.200 256.526,232.372 251.644,232.848 250.705 C 233.041 250.323,233.200 249.719,233.200 249.363 C 233.200 248.266,234.465 243.074,235.068 241.700 L 235.638 240.400 248.770 240.400 C 258.795 240.400,261.997 240.518,262.304 240.900 " stroke="none" fill="#041c3c" fill-rule="evenodd"></path><path id="path2" d="M110.140 94.000 C 110.140 95.870,110.209 96.635,110.293 95.700 C 110.377 94.765,110.377 93.235,110.293 92.300 C 110.209 91.365,110.140 92.130,110.140 94.000 M159.361 100.000 C 159.361 103.410,159.422 104.805,159.497 103.100 C 159.572 101.395,159.572 98.605,159.497 96.900 C 159.422 95.195,159.361 96.590,159.361 100.000 M88.534 104.400 C 88.534 106.050,88.605 106.725,88.691 105.900 C 88.778 105.075,88.778 103.725,88.691 102.900 C 88.605 102.075,88.534 102.750,88.534 104.400 " stroke="none" fill="#768496" fill-rule="evenodd"></path><path id="path3" d="M88.967 82.141 C 88.850 82.446,88.821 83.664,88.903 84.848 L 89.052 87.000 89.126 84.500 L 89.200 82.000 99.587 82.000 L 109.974 82.000 110.107 86.300 L 110.239 90.600 110.220 86.200 L 110.200 81.800 99.690 81.693 C 91.029 81.605,89.143 81.684,88.967 82.141 M159.360 88.200 C 159.361 91.500,159.422 92.797,159.498 91.082 C 159.573 89.367,159.572 86.667,159.497 85.082 C 159.421 83.497,159.359 84.900,159.360 88.200 M88.580 121.000 C 88.580 128.700,88.634 131.793,88.699 127.874 C 88.765 123.955,88.765 117.655,88.699 113.874 C 88.634 110.093,88.580 113.300,88.580 121.000 M137.748 130.000 C 137.748 132.310,137.814 133.255,137.895 132.100 C 137.976 130.945,137.976 129.055,137.895 127.900 C 137.814 126.745,137.748 127.690,137.748 130.000 M158.920 132.400 C 158.920 133.610,158.995 134.105,159.087 133.500 C 159.178 132.895,159.178 131.905,159.087 131.300 C 158.995 130.695,158.920 131.190,158.920 132.400 M137.254 136.267 C 137.225 136.744,137.096 137.464,136.970 137.867 C 136.752 138.561,136.764 138.562,137.196 137.888 C 137.447 137.497,137.575 136.777,137.481 136.288 C 137.309 135.401,137.309 135.401,137.254 136.267 M158.509 137.600 C 158.509 138.590,158.587 138.995,158.682 138.500 C 158.778 138.005,158.778 137.195,158.682 136.700 C 158.587 136.205,158.509 136.610,158.509 137.600 M133.178 145.100 L 131.800 146.600 133.300 145.222 C 134.125 144.463,134.800 143.788,134.800 143.722 C 134.800 143.416,134.462 143.704,133.178 145.100 M122.900 148.687 C 123.505 148.778,124.495 148.778,125.100 148.687 C 125.705 148.595,125.210 148.520,124.000 148.520 C 122.790 148.520,122.295 148.595,122.900 148.687 M95.200 154.600 C 95.946 155.370,96.647 156.000,96.757 156.000 C 96.867 156.000,96.346 155.370,95.600 154.600 C 94.854 153.830,94.153 153.200,94.043 153.200 C 93.933 153.200,94.454 153.830,95.200 154.600 M148.800 156.868 C 147.752 157.820,147.501 158.165,148.200 157.695 C 149.304 156.951,151.138 155.177,150.762 155.217 C 150.673 155.226,149.790 155.970,148.800 156.868 M110.000 163.600 C 111.368 164.038,112.419 164.038,111.400 163.600 C 110.960 163.411,110.240 163.262,109.800 163.268 C 109.157 163.277,109.196 163.343,110.000 163.600 M134.600 163.600 C 134.096 163.817,134.022 163.944,134.400 163.944 C 134.730 163.944,135.360 163.789,135.800 163.600 C 136.304 163.383,136.378 163.256,136.000 163.256 C 135.670 163.256,135.040 163.411,134.600 163.600 M115.500 164.682 C 115.995 164.778,116.805 164.778,117.300 164.682 C 117.795 164.587,117.390 164.509,116.400 164.509 C 115.410 164.509,115.005 164.587,115.500 164.682 M128.307 164.690 C 129.026 164.779,130.106 164.777,130.707 164.686 C 131.308 164.595,130.720 164.522,129.400 164.524 C 128.080 164.526,127.588 164.601,128.307 164.690 M120.300 165.082 C 120.795 165.178,121.605 165.178,122.100 165.082 C 122.595 164.987,122.190 164.909,121.200 164.909 C 120.210 164.909,119.805 164.987,120.300 165.082 M123.700 165.076 C 124.085 165.176,124.715 165.176,125.100 165.076 C 125.485 164.975,125.170 164.893,124.400 164.893 C 123.630 164.893,123.315 164.975,123.700 165.076 M248.560 241.192 C 261.250 241.393,261.731 241.429,262.032 242.200 C 262.203 242.640,262.356 242.790,262.372 242.533 C 262.478 240.773,262.662 240.795,248.657 240.892 L 235.400 240.984 248.560 241.192 M289.062 241.100 C 288.960 241.265,294.872 241.400,302.200 241.400 C 309.528 241.400,315.440 241.265,315.338 241.100 C 315.236 240.935,309.324 240.800,302.200 240.800 C 295.076 240.800,289.164 240.935,289.062 241.100 M287.246 247.667 C 287.221 248.034,287.096 248.664,286.970 249.067 C 286.752 249.762,286.763 249.763,287.197 249.087 C 287.448 248.696,287.573 248.066,287.473 247.687 C 287.311 247.068,287.288 247.066,287.246 247.667 M317.268 251.000 C 317.262 251.440,317.411 252.160,317.600 252.600 C 318.038 253.619,318.038 252.568,317.600 251.200 C 317.343 250.396,317.277 250.357,317.268 251.000 M285.246 255.667 C 285.221 256.034,285.096 256.664,284.970 257.067 C 284.752 257.762,284.763 257.763,285.197 257.087 C 285.448 256.696,285.573 256.066,285.473 255.687 C 285.311 255.068,285.288 255.066,285.246 255.667 M231.246 258.467 C 231.221 258.834,231.096 259.464,230.970 259.867 C 230.752 260.562,230.763 260.563,231.197 259.887 C 231.448 259.496,231.573 258.866,231.473 258.487 C 231.311 257.868,231.288 257.866,231.246 258.467 M284.229 259.829 C 284.081 260.415,284.038 260.972,284.132 261.066 C 284.227 261.160,284.424 260.758,284.571 260.171 C 284.719 259.585,284.762 259.028,284.668 258.934 C 284.573 258.840,284.376 259.242,284.229 259.829 M319.268 261.000 C 319.262 261.440,319.411 262.160,319.600 262.600 C 320.038 263.619,320.038 262.568,319.600 261.200 C 319.343 260.396,319.277 260.357,319.268 261.000 M230.229 262.629 C 230.081 263.215,230.038 263.772,230.132 263.866 C 230.227 263.960,230.424 263.558,230.571 262.971 C 230.719 262.385,230.762 261.828,230.668 261.734 C 230.573 261.640,230.376 262.042,230.229 262.629 M301.333 265.371 C 301.585 265.905,301.855 266.278,301.932 266.201 C 302.181 265.953,301.558 264.400,301.211 264.400 C 301.026 264.400,301.081 264.837,301.333 265.371 M229.246 266.867 C 229.221 267.234,229.096 267.864,228.970 268.267 C 228.752 268.962,228.763 268.963,229.197 268.287 C 229.448 267.896,229.573 267.266,229.473 266.887 C 229.311 266.268,229.288 266.266,229.246 266.867 M250.056 269.600 C 250.056 269.930,250.211 270.560,250.400 271.000 C 250.617 271.504,250.744 271.578,250.744 271.200 C 250.744 270.870,250.589 270.240,250.400 269.800 C 250.183 269.296,250.056 269.222,250.056 269.600 M228.229 271.029 C 228.081 271.615,228.038 272.172,228.132 272.266 C 228.227 272.360,228.424 271.958,228.571 271.371 C 228.719 270.785,228.762 270.228,228.668 270.134 C 228.573 270.040,228.376 270.442,228.229 271.029 M251.044 273.800 C 251.373 275.271,251.602 275.590,251.594 274.567 C 251.591 274.145,251.405 273.530,251.182 273.200 C 250.885 272.762,250.848 272.924,251.044 273.800 M298.250 274.450 C 298.109 275.153,298.069 275.802,298.159 275.892 C 298.250 275.983,298.448 275.491,298.600 274.800 C 298.752 274.109,298.793 273.459,298.691 273.358 C 298.589 273.256,298.391 273.747,298.250 274.450 M280.229 276.229 C 280.081 276.815,280.038 277.372,280.132 277.466 C 280.227 277.560,280.424 277.158,280.571 276.571 C 280.719 275.985,280.762 275.428,280.668 275.334 C 280.573 275.240,280.376 275.642,280.229 276.229 M303.293 276.400 C 303.293 277.170,303.375 277.485,303.476 277.100 C 303.576 276.715,303.576 276.085,303.476 275.700 C 303.375 275.315,303.293 275.630,303.293 276.400 M297.429 277.829 C 297.281 278.415,297.238 278.972,297.332 279.066 C 297.427 279.160,297.624 278.758,297.771 278.171 C 297.919 277.585,297.962 277.028,297.868 276.934 C 297.773 276.840,297.576 277.242,297.429 277.829 M245.400 278.400 C 245.248 279.091,245.207 279.741,245.309 279.842 C 245.411 279.944,245.609 279.453,245.750 278.750 C 245.891 278.047,245.931 277.398,245.841 277.308 C 245.750 277.217,245.552 277.709,245.400 278.400 M252.056 278.000 C 252.056 278.330,252.211 278.960,252.400 279.400 C 252.617 279.904,252.744 279.978,252.744 279.600 C 252.744 279.270,252.589 278.640,252.400 278.200 C 252.183 277.696,252.056 277.622,252.056 278.000 M226.229 279.429 C 226.081 280.015,226.038 280.572,226.132 280.666 C 226.227 280.760,226.424 280.358,226.571 279.771 C 226.719 279.185,226.762 278.628,226.668 278.534 C 226.573 278.440,226.376 278.842,226.229 279.429 M279.246 280.067 C 279.221 280.434,279.096 281.064,278.970 281.467 C 278.752 282.162,278.763 282.163,279.197 281.487 C 279.448 281.096,279.573 280.466,279.473 280.087 C 279.311 279.468,279.288 279.466,279.246 280.067 M304.087 281.800 C 304.091 282.240,304.232 283.140,304.400 283.800 C 304.674 284.878,304.706 284.898,304.713 284.000 C 304.717 283.450,304.576 282.550,304.400 282.000 C 304.149 281.216,304.081 281.173,304.087 281.800 M278.229 284.229 C 278.081 284.815,278.038 285.372,278.132 285.466 C 278.227 285.560,278.424 285.158,278.571 284.571 C 278.719 283.985,278.762 283.428,278.668 283.334 C 278.573 283.240,278.376 283.642,278.229 284.229 M254.056 286.800 C 254.056 287.130,254.211 287.760,254.400 288.200 C 254.617 288.704,254.744 288.778,254.744 288.400 C 254.744 288.070,254.589 287.440,254.400 287.000 C 254.183 286.496,254.056 286.422,254.056 286.800 M305.073 288.400 C 305.204 289.390,305.376 290.275,305.456 290.367 C 305.757 290.714,305.528 288.164,305.190 287.400 C 304.953 286.866,304.914 287.198,305.073 288.400 M306.087 295.000 C 306.091 295.440,306.232 296.340,306.400 297.000 C 306.674 298.078,306.706 298.098,306.713 297.200 C 306.717 296.650,306.576 295.750,306.400 295.200 C 306.149 294.416,306.081 294.373,306.087 295.000 M275.246 296.467 C 275.221 296.834,275.096 297.464,274.970 297.867 C 274.752 298.562,274.763 298.563,275.197 297.887 C 275.448 297.496,275.573 296.866,275.473 296.487 C 275.311 295.868,275.288 295.866,275.246 296.467 M241.400 298.000 C 241.248 298.691,241.207 299.341,241.309 299.442 C 241.411 299.544,241.609 299.053,241.750 298.350 C 241.891 297.647,241.931 296.998,241.841 296.908 C 241.750 296.817,241.552 297.309,241.400 298.000 M257.044 299.800 C 257.373 301.271,257.602 301.590,257.594 300.567 C 257.591 300.145,257.405 299.530,257.182 299.200 C 256.885 298.762,256.848 298.924,257.044 299.800 M221.246 300.067 C 221.221 300.434,221.096 301.064,220.970 301.467 C 220.752 302.162,220.763 302.163,221.197 301.487 C 221.448 301.096,221.573 300.466,221.473 300.087 C 221.311 299.468,221.288 299.466,221.246 300.067 M327.268 301.400 C 327.262 301.840,327.411 302.560,327.600 303.000 C 328.038 304.019,328.038 302.968,327.600 301.600 C 327.343 300.796,327.277 300.757,327.268 301.400 M307.293 302.400 C 307.293 303.170,307.375 303.485,307.476 303.100 C 307.576 302.715,307.576 302.085,307.476 301.700 C 307.375 301.315,307.293 301.630,307.293 302.400 M220.229 304.229 C 220.081 304.815,220.038 305.372,220.132 305.466 C 220.227 305.560,220.424 305.158,220.571 304.571 C 220.719 303.985,220.762 303.428,220.668 303.334 C 220.573 303.240,220.376 303.642,220.229 304.229 M258.056 304.000 C 258.056 304.330,258.211 304.960,258.400 305.400 C 258.617 305.904,258.744 305.978,258.744 305.600 C 258.744 305.270,258.589 304.640,258.400 304.200 C 258.183 303.696,258.056 303.622,258.056 304.000 M239.400 307.600 C 239.248 308.291,239.207 308.941,239.309 309.042 C 239.411 309.144,239.609 308.653,239.750 307.950 C 239.891 307.247,239.931 306.598,239.841 306.508 C 239.750 306.417,239.552 306.909,239.400 307.600 M219.246 308.467 C 219.221 308.834,219.096 309.464,218.970 309.867 C 218.752 310.562,218.763 310.563,219.197 309.887 C 219.448 309.496,219.573 308.866,219.473 308.487 C 219.311 307.868,219.288 307.866,219.246 308.467 M289.429 310.229 C 289.281 310.815,289.238 311.372,289.332 311.466 C 289.427 311.560,289.624 311.158,289.771 310.571 C 289.919 309.985,289.962 309.428,289.868 309.334 C 289.773 309.240,289.576 309.642,289.429 310.229 M329.268 311.400 C 329.262 311.840,329.411 312.560,329.600 313.000 C 330.038 314.019,330.038 312.968,329.600 311.600 C 329.343 310.796,329.277 310.757,329.268 311.400 M218.229 312.629 C 218.081 313.215,218.038 313.772,218.132 313.866 C 218.227 313.960,218.424 313.558,218.571 312.971 C 218.719 312.385,218.762 311.828,218.668 311.734 C 218.573 311.640,218.376 312.042,218.229 312.629 M260.056 312.800 C 260.056 313.130,260.211 313.760,260.400 314.200 C 260.617 314.704,260.744 314.778,260.744 314.400 C 260.744 314.070,260.589 313.440,260.400 313.000 C 260.183 312.496,260.056 312.422,260.056 312.800 M309.293 315.600 C 309.293 316.370,309.375 316.685,309.476 316.300 C 309.576 315.915,309.576 315.285,309.476 314.900 C 309.375 314.515,309.293 314.830,309.293 315.600 M261.044 317.000 C 261.373 318.471,261.602 318.790,261.594 317.767 C 261.591 317.345,261.405 316.730,261.182 316.400 C 260.885 315.962,260.848 316.124,261.044 317.000 M217.246 316.867 C 217.221 317.234,217.096 317.864,216.970 318.267 C 216.752 318.962,216.763 318.963,217.197 318.287 C 217.448 317.896,217.573 317.266,217.473 316.887 C 217.311 316.268,217.288 316.266,217.246 316.867 M237.400 317.600 C 237.248 318.291,237.207 318.941,237.309 319.042 C 237.411 319.144,237.609 318.653,237.750 317.950 C 237.891 317.247,237.931 316.598,237.841 316.508 C 237.750 316.417,237.552 316.909,237.400 317.600 M216.252 320.900 C 216.119 321.395,216.008 321.935,216.005 322.100 C 216.002 322.265,220.680 322.400,226.400 322.400 C 232.120 322.400,236.800 322.265,236.800 322.100 C 236.800 321.935,232.206 321.851,226.589 321.913 L 216.378 322.026 216.632 321.013 C 216.772 320.456,216.798 320.000,216.690 320.000 C 216.582 320.000,216.385 320.405,216.252 320.900 M310.134 321.200 L 310.200 322.200 320.900 322.307 L 331.600 322.413 331.554 321.507 C 331.519 320.829,331.461 320.777,331.324 321.300 C 331.156 321.944,330.312 322.000,320.798 322.000 L 310.456 322.000 310.262 321.100 C 310.092 320.307,310.077 320.319,310.134 321.200 M262.128 321.400 C 262.208 322.178,262.544 322.203,274.378 322.306 C 286.693 322.413,287.202 322.361,287.182 321.000 C 287.178 320.780,286.992 320.915,286.768 321.300 C 286.394 321.942,285.369 322.000,274.409 322.000 C 263.373 322.000,262.443 321.946,262.252 321.300 C 262.092 320.756,262.064 320.778,262.128 321.400 " stroke="none" fill="#848c9c" fill-rule="evenodd"></path><path id="path4" d="M94.300 81.499 C 97.215 81.567,101.985 81.567,104.900 81.499 C 107.815 81.431,105.430 81.375,99.600 81.375 C 93.770 81.375,91.385 81.431,94.300 81.499 M110.520 84.000 C 110.520 85.210,110.595 85.705,110.687 85.100 C 110.778 84.495,110.778 83.505,110.687 82.900 C 110.595 82.295,110.520 82.790,110.520 84.000 M88.554 91.200 C 88.554 93.950,88.618 95.075,88.696 93.700 C 88.774 92.325,88.774 90.075,88.696 88.700 C 88.618 87.325,88.554 88.450,88.554 91.200 M137.765 104.800 C 137.765 108.650,137.825 110.225,137.898 108.300 C 137.971 106.375,137.971 103.225,137.898 101.300 C 137.825 99.375,137.765 100.950,137.765 104.800 M110.164 105.000 C 110.163 108.740,110.223 110.324,110.297 108.520 C 110.371 106.715,110.372 103.655,110.298 101.720 C 110.225 99.784,110.164 101.260,110.164 105.000 M88.172 124.600 C 88.172 129.660,88.229 131.675,88.299 129.077 C 88.369 126.480,88.368 122.340,88.298 119.877 C 88.228 117.415,88.171 119.540,88.172 124.600 M159.367 126.400 C 159.367 130.690,159.426 132.445,159.498 130.300 C 159.570 128.155,159.570 124.645,159.498 122.500 C 159.426 120.355,159.367 122.110,159.367 126.400 M94.000 153.725 C 94.000 153.794,94.585 154.379,95.300 155.025 L 96.600 156.200 95.425 154.900 C 94.330 153.688,94.000 153.416,94.000 153.725 M121.705 165.487 C 122.314 165.579,123.214 165.577,123.705 165.482 C 124.197 165.387,123.700 165.311,122.600 165.314 C 121.500 165.317,121.097 165.395,121.705 165.487 " stroke="none" fill="#526379" fill-rule="evenodd"></path><path id="path5" d="M141.800 81.881 C 150.719 82.164,159.509 82.174,159.339 81.900 C 159.237 81.735,154.438 81.637,148.676 81.683 C 142.914 81.729,139.820 81.818,141.800 81.881 M88.534 98.800 C 88.534 100.450,88.605 101.125,88.691 100.300 C 88.778 99.475,88.778 98.125,88.691 97.300 C 88.605 96.475,88.534 97.150,88.534 98.800 M159.363 112.400 C 159.363 116.030,159.423 117.515,159.498 115.700 C 159.572 113.885,159.572 110.915,159.498 109.100 C 159.423 107.285,159.363 108.770,159.363 112.400 M137.765 118.400 C 137.765 122.250,137.825 123.825,137.898 121.900 C 137.971 119.975,137.971 116.825,137.898 114.900 C 137.825 112.975,137.765 114.550,137.765 118.400 M221.300 322.699 C 224.105 322.768,228.695 322.768,231.500 322.699 C 234.305 322.630,232.010 322.574,226.400 322.574 C 220.790 322.574,218.495 322.630,221.300 322.699 M268.725 322.699 C 272.093 322.766,277.493 322.766,280.725 322.699 C 283.956 322.632,281.200 322.577,274.600 322.577 C 268.000 322.577,265.356 322.632,268.725 322.699 M315.676 322.699 C 318.468 322.767,323.148 322.768,326.076 322.699 C 329.004 322.631,326.720 322.575,321.000 322.574 C 315.280 322.574,312.884 322.630,315.676 322.699 " stroke="none" fill="#66768c" fill-rule="evenodd"></path><path id="path6" d="M88.565 81.748 C 88.449 82.049,88.413 83.264,88.484 84.448 L 88.613 86.600 88.807 83.899 C 89.001 81.181,88.952 80.739,88.565 81.748 M138.080 81.680 C 137.732 82.028,137.624 84.374,137.687 90.180 L 137.775 98.200 137.987 90.000 L 138.200 81.800 148.862 81.800 C 154.726 81.800,159.440 81.665,159.338 81.500 C 159.008 80.966,138.621 81.139,138.080 81.680 M110.561 92.000 C 110.561 95.410,110.622 96.805,110.697 95.100 C 110.772 93.395,110.772 90.605,110.697 88.900 C 110.622 87.195,110.561 88.590,110.561 92.000 M88.150 111.400 C 88.151 113.820,88.216 114.758,88.296 113.485 C 88.376 112.212,88.375 110.232,88.294 109.085 C 88.214 107.938,88.149 108.980,88.150 111.400 M110.174 121.600 C 110.174 127.210,110.230 129.505,110.299 126.700 C 110.368 123.895,110.368 119.305,110.299 116.500 C 110.230 113.695,110.174 115.990,110.174 121.600 M137.374 121.800 C 137.375 127.520,137.431 129.804,137.499 126.876 C 137.568 123.948,137.567 119.268,137.499 116.476 C 137.430 113.684,137.374 116.080,137.374 121.800 M110.501 134.600 C 110.505 135.480,110.587 135.793,110.683 135.295 C 110.779 134.798,110.775 134.078,110.675 133.695 C 110.575 133.313,110.496 133.720,110.501 134.600 M159.249 134.600 C 159.216 135.040,159.096 135.850,158.983 136.400 L 158.777 137.400 159.206 136.419 C 159.442 135.879,159.561 135.069,159.472 134.619 C 159.313 133.821,159.307 133.821,159.249 134.600 M88.493 140.000 C 88.493 140.770,88.575 141.085,88.676 140.700 C 88.776 140.315,88.776 139.685,88.676 139.300 C 88.575 138.915,88.493 139.230,88.493 140.000 M127.000 147.600 C 125.893 147.882,125.877 147.909,126.800 147.947 C 127.350 147.969,128.070 147.813,128.400 147.600 C 129.081 147.160,128.729 147.160,127.000 147.600 M120.100 147.876 C 120.485 147.976,121.115 147.976,121.500 147.876 C 121.885 147.775,121.570 147.693,120.800 147.693 C 120.030 147.693,119.715 147.775,120.100 147.876 M151.978 154.300 L 150.600 155.800 152.100 154.422 C 152.925 153.663,153.600 152.988,153.600 152.922 C 153.600 152.616,153.262 152.904,151.978 154.300 M116.400 165.191 C 116.939 165.548,121.168 165.804,120.767 165.456 C 120.675 165.376,119.520 165.195,118.200 165.053 C 116.557 164.876,115.989 164.920,116.400 165.191 M126.000 165.200 L 124.200 165.480 125.800 165.500 C 126.680 165.511,127.850 165.376,128.400 165.200 C 129.663 164.795,128.602 164.795,126.000 165.200 M248.600 240.697 C 260.437 240.793,261.852 240.874,262.300 241.479 C 262.575 241.850,262.800 241.975,262.800 241.756 C 262.800 240.486,261.836 240.400,248.620 240.494 L 235.400 240.589 248.600 240.697 M288.667 240.667 C 288.520 240.813,288.403 241.128,288.406 241.367 C 288.410 241.616,288.549 241.584,288.736 241.289 C 288.991 240.888,291.938 240.802,302.492 240.889 C 309.880 240.950,315.841 240.865,315.738 240.700 C 315.509 240.329,289.037 240.297,288.667 240.667 M287.646 244.067 C 287.621 244.434,287.496 245.064,287.370 245.467 C 287.152 246.162,287.163 246.163,287.597 245.487 C 287.848 245.096,287.973 244.466,287.873 244.087 C 287.711 243.468,287.688 243.466,287.646 244.067 M231.646 254.867 C 231.621 255.234,231.496 255.864,231.370 256.267 C 231.152 256.962,231.163 256.963,231.597 256.287 C 231.848 255.896,231.973 255.266,231.873 254.887 C 231.711 254.268,231.688 254.266,231.646 254.867 M248.054 267.867 C 248.025 268.344,247.896 269.064,247.770 269.467 C 247.552 270.161,247.564 270.162,247.996 269.488 C 248.247 269.097,248.375 268.377,248.281 267.888 C 248.109 267.001,248.109 267.001,248.054 267.867 M301.693 268.800 C 301.693 269.570,301.775 269.885,301.876 269.500 C 301.976 269.115,301.976 268.485,301.876 268.100 C 301.775 267.715,301.693 268.030,301.693 268.800 M249.444 269.000 C 249.773 270.471,250.002 270.790,249.994 269.767 C 249.991 269.345,249.805 268.730,249.582 268.400 C 249.285 267.962,249.248 268.124,249.444 269.000 M281.646 268.467 C 281.621 268.834,281.496 269.464,281.370 269.867 C 281.152 270.562,281.163 270.563,281.597 269.887 C 281.848 269.496,281.973 268.866,281.873 268.487 C 281.711 267.868,281.688 267.866,281.646 268.467 M302.406 274.433 C 302.409 274.965,302.589 275.670,302.806 276.000 C 303.082 276.422,303.123 276.185,302.942 275.200 C 302.625 273.475,302.398 273.149,302.406 274.433 M298.046 277.267 C 298.021 277.634,297.896 278.264,297.770 278.667 C 297.552 279.362,297.563 279.363,297.997 278.687 C 298.248 278.296,298.373 277.666,298.273 277.287 C 298.111 276.668,298.088 276.666,298.046 277.267 M304.406 287.633 C 304.409 288.165,304.589 288.870,304.806 289.200 C 305.082 289.622,305.123 289.385,304.942 288.400 C 304.625 286.675,304.398 286.349,304.406 287.633 M275.646 292.867 C 275.621 293.234,275.496 293.864,275.370 294.267 C 275.152 294.962,275.163 294.963,275.597 294.287 C 275.848 293.896,275.973 293.266,275.873 292.887 C 275.711 292.268,275.688 292.266,275.646 292.867 M221.646 296.467 C 221.621 296.834,221.496 297.464,221.370 297.867 C 221.152 298.562,221.163 298.563,221.597 297.887 C 221.848 297.496,221.973 296.866,221.873 296.487 C 221.711 295.868,221.688 295.866,221.646 296.467 M274.567 297.391 C 274.367 298.188,274.204 298.333,273.953 297.938 C 273.766 297.642,273.612 297.580,273.612 297.800 C 273.612 299.076,274.327 299.185,274.749 297.974 C 274.999 297.257,275.122 296.588,275.021 296.488 C 274.921 296.388,274.716 296.794,274.567 297.391 M292.046 301.667 C 292.021 302.034,291.896 302.664,291.770 303.067 C 291.552 303.762,291.563 303.763,291.997 303.087 C 292.248 302.696,292.373 302.066,292.273 301.687 C 292.111 301.068,292.088 301.066,292.046 301.667 M219.646 304.867 C 219.621 305.234,219.496 305.864,219.370 306.267 C 219.152 306.962,219.163 306.963,219.597 306.287 C 219.848 305.896,219.973 305.266,219.873 304.887 C 219.711 304.268,219.688 304.266,219.646 304.867 M307.693 308.000 C 307.693 308.770,307.775 309.085,307.876 308.700 C 307.976 308.315,307.976 307.685,307.876 307.300 C 307.775 306.915,307.693 307.230,307.693 308.000 M290.046 309.667 C 290.021 310.034,289.896 310.664,289.770 311.067 C 289.552 311.762,289.563 311.763,289.997 311.087 C 290.248 310.696,290.373 310.066,290.273 309.687 C 290.111 309.068,290.088 309.066,290.046 309.667 M259.444 312.200 C 259.773 313.671,260.002 313.990,259.994 312.967 C 259.991 312.545,259.805 311.930,259.582 311.600 C 259.285 311.162,259.248 311.324,259.444 312.200 M308.406 313.833 C 308.409 314.255,308.595 314.870,308.818 315.200 C 309.115 315.638,309.152 315.476,308.956 314.600 C 308.627 313.129,308.398 312.810,308.406 313.833 M236.856 321.855 C 236.376 322.927,236.386 322.958,237.018 322.339 C 237.389 321.976,237.620 321.460,237.531 321.194 C 237.442 320.927,237.139 321.225,236.856 321.855 " stroke="none" fill="#364c66" fill-rule="evenodd"></path></g></svg>